<?xml version="1.0" encoding="utf-8"?>
<!-- Generator: Adobe Illustrator 27.7.0, SVG Export Plug-In . SVG Version: 6.00 Build 0)  -->
<svg version="1.1" id="Capa_1" xmlns="http://www.w3.org/2000/svg" xmlns:xlink="http://www.w3.org/1999/xlink" x="0px" y="0px"
	 viewBox="0 0 104.2 76.9" style="enable-background:new 0 0 104.2 76.9;" xml:space="preserve">
<style type="text/css">
	.st0{fill:#CE2948;}
	.st1{fill:#F3C752;}
</style>
<path class="st0" d="M12.7,21.8c-1.2,0.1-2.1,0.5-2.8,0.9c-0.2,0.3-0.3,0.6-0.5,1c-0.5,1.2-0.9,2.6-1.2,3.8c0.1,0.8,0.2,1.5,0.3,1.7
	C9,29.6,20.8,30,23.2,29.8c2.4-0.1,7.6-4.5,11.8-5.5c1.8-0.4,8.4-0.2,10.9-0.3c2.5-0.1,3.4-2.5,3.4-2.5
	C37.5,20.9,15.4,21.6,12.7,21.8z"/>
<path class="st1" d="M43.6,22.6c-2.6-0.2-11.4,0-12.3,0.8c-0.9,0.8-3.7,2.1-5,3.3c-1.4,1.2-4.9,1.5-7.5,1.4
	c-1.9-0.1-7.6-0.5-10.6-0.8c0,0.1,0,0.1-0.1,0.2c0.1,0.8,0.2,1.5,0.3,1.7C9,29.6,20.8,30,23.2,29.8c2.4-0.1,7.6-4.5,11.8-5.5
	c1.8-0.4,8.4-0.2,10.9-0.3c2.5-0.1,3.4-2.5,3.4-2.5c-1,0-2-0.1-3.1-0.1C46,21.8,45.6,22.7,43.6,22.6z"/>
</svg>
